<svg version="1.1" id="Layer_1" xmlns="http://www.w3.org/2000/svg" xmlns:xlink="http://www.w3.org/1999/xlink" x="0px" y="0px"
	 width="100%" viewBox="0 0 512 512" enable-background="new 0 0 512 512" xml:space="preserve">
<path fill="#000000" opacity="1.000000" stroke="none" 
	d="
M1.000002,485.000000 
	C1.000000,479.645081 1.000000,474.290131 1.276745,468.290192 
	C12.438601,453.199738 23.351521,438.775146 34.203838,424.305145 
	C74.910500,370.028564 115.566353,315.713776 156.364059,261.505768 
	C158.980240,258.029663 158.785309,255.531982 156.257324,252.326462 
	C150.811691,245.421356 145.576447,238.349274 140.301590,231.310699 
	C101.391571,179.390732 62.426716,127.511574 23.646919,75.494492 
	C15.922220,65.133003 7.275738,55.410782 1.000000,44.000000 
	C1.000000,39.643101 1.000000,35.286201 1.227004,30.221123 
	C7.085557,19.963316 16.800148,15.484515 28.278559,20.511852 
	C36.650974,24.178820 44.879807,28.172766 53.186218,31.991417 
	C85.503296,46.848316 117.841629,61.659077 150.141052,76.554253 
	C174.138916,87.621094 198.069565,98.833702 222.065018,109.905838 
	C254.202774,124.735054 286.388123,139.461166 318.526581,154.288818 
	C342.673706,165.429504 366.755188,176.712601 390.908875,187.838898 
	C427.292908,204.598999 463.709595,221.288269 500.125031,237.979996 
	C506.082367,240.710663 510.976349,244.416504 513.000000,251.000000 
	C513.000000,255.024551 513.000000,259.049103 512.819214,263.822144 
	C510.286255,269.879364 506.176788,273.267670 500.954132,275.585327 
	C490.630371,280.166656 480.332062,284.807556 470.071564,289.528839 
	C439.731110,303.489777 409.414734,317.502960 379.087952,331.493591 
	C348.618652,345.549927 318.145447,359.597748 287.679138,373.660614 
	C261.887817,385.565521 236.104599,397.488037 210.316544,409.400055 
	C175.472427,425.495239 140.614151,441.559906 105.786682,457.691071 
	C81.655090,468.868164 57.583778,480.175415 33.449917,491.347565 
	C18.703465,498.174011 10.844495,497.187012 1.427601,485.253326 
	C1.331825,485.131958 1.144557,485.082825 1.000002,485.000000 
z"/>
</svg>