<svg version="1.1" id="Layer_1" xmlns="http://www.w3.org/2000/svg" xmlns:xlink="http://www.w3.org/1999/xlink" x="0px" y="0px"
	 width="100%" viewBox="0 0 1024 1024" enable-background="new 0 0 1024 1024" xml:space="preserve">
<path fill="#000100" opacity="1.000000" stroke="none" 
	d="
M477.000000,1025.000000 
	C318.367706,1025.000000 159.735443,1025.000000 1.051580,1025.000000 
	C1.051580,683.775024 1.051580,342.550049 1.051580,1.000000 
	C155.358078,1.000000 309.716400,1.000000 464.635651,1.434566 
	C466.711029,2.294486 468.250732,3.159519 469.735870,3.074271 
	C479.830353,2.494820 489.913300,1.715067 500.000000,1.000001 
	C674.925476,1.000000 849.851013,1.000000 1025.000000,1.000000 
	C1025.000000,158.691498 1025.000000,316.383118 1024.565186,474.545776 
	C1023.725830,475.641541 1022.932373,476.294525 1022.975342,476.886749 
	C1023.583679,485.262665 1024.305542,493.630341 1025.000000,502.000000 
	C1025.000000,676.257996 1025.000000,850.516052 1025.000000,1025.000000 
	C871.308533,1025.000000 717.616882,1025.000000 563.126343,1024.645752 
	C562.802429,1023.864502 563.250427,1023.103210 563.756592,1023.062317 
	C568.497314,1022.679626 573.272034,1022.623840 577.989197,1022.068420 
	C582.813110,1021.500549 587.583557,1020.477600 592.377380,1019.653809 
	C579.889709,1021.126648 566.994995,1020.081055 554.912109,1024.534912 
	C552.761658,1023.736389 550.726074,1023.012878 548.743347,1023.136536 
	C541.153015,1023.610107 533.579712,1024.355835 526.000000,1025.000000 
	C517.975098,1025.000000 509.950195,1025.000000 501.209503,1024.851074 
	C493.526733,1024.107910 486.564240,1023.438477 479.586670,1023.020508 
	C478.766907,1022.971436 477.864227,1024.306519 477.000000,1025.000000 
M863.291199,138.195694 
	C863.657898,138.382858 864.024536,138.570023 864.271179,139.432129 
	C868.678284,143.766083 873.085388,148.100037 877.718445,152.870483 
	C877.926880,153.144135 878.198975,153.318161 878.755615,153.864166 
	C879.035706,154.060669 879.315735,154.257172 879.790833,154.906799 
	C879.988647,155.187576 880.253052,155.373947 880.773071,155.917923 
	C880.968750,156.198685 881.232239,156.381958 881.860168,157.065948 
	C884.734802,159.559097 887.609436,162.052246 890.223816,164.994461 
	C890.339233,165.175735 890.454590,165.357025 890.570068,165.538315 
	C890.528015,165.217728 890.486023,164.897141 890.111389,163.986130 
	C887.454956,161.274506 884.798523,158.562881 881.976868,155.366302 
	C881.688599,155.204224 881.400330,155.042145 880.953918,154.392715 
	C880.666504,154.228989 880.379089,154.065262 879.957458,153.405396 
	C879.670959,153.239380 879.384460,153.073349 878.964661,152.413101 
	C878.684448,152.235962 878.404236,152.058807 877.880005,151.256088 
	C873.333435,147.126511 868.786804,142.996948 863.863953,138.496628 
	C863.680786,138.192566 863.497620,137.888504 862.996399,137.551498 
	C862.910339,137.561478 862.824219,137.571442 862.738159,137.581421 
	C862.946289,137.553268 863.154358,137.525131 863.291199,138.195694 
M877.143494,872.830933 
	C876.955444,873.101746 876.767334,873.372498 876.120178,873.972290 
	C876.141113,874.216125 876.161987,874.459961 876.182922,874.703857 
	C876.490540,874.502380 876.798096,874.300903 877.607544,873.967041 
	C877.773560,873.677063 877.939575,873.387085 878.586731,872.951233 
	C878.765442,872.677490 878.944092,872.403748 879.748108,871.884277 
	C883.147644,868.445007 886.547180,865.005737 889.946716,861.566467 
	C889.588928,861.235657 889.231140,860.904846 888.873352,860.574036 
	C885.441101,864.228821 882.008850,867.883545 878.136658,871.793945 
	C877.963257,872.080444 877.789795,872.367004 877.143494,872.830933 
M897.380066,175.296371 
	C897.549561,175.138702 897.718994,174.981033 897.888489,174.823395 
	C897.774597,174.997131 897.660706,175.170868 897.596619,174.977341 
	C897.820984,175.103958 898.061829,175.210602 898.257629,175.371872 
	C898.304138,175.410202 898.200073,175.631516 898.165222,175.768692 
	C897.993835,175.649780 897.822449,175.530853 897.380066,175.296371 
M909.124390,186.782547 
	C909.009155,186.742035 908.893921,186.701538 908.778687,186.661026 
	C908.872925,186.642899 908.967102,186.624786 909.455505,186.774490 
	C909.407776,187.067230 909.360046,187.359970 909.312317,187.652740 
	C909.378052,187.641235 909.443787,187.629730 909.509460,187.618240 
	C909.304565,187.262497 909.099670,186.906738 909.124390,186.782547 
M906.266968,183.950592 
	C906.178955,184.002701 906.091003,184.054810 905.301453,184.489975 
	C904.990723,183.565109 904.680054,182.640244 904.369385,181.715378 
	C904.456421,181.670395 904.543457,181.625427 904.630493,181.580444 
	C905.084961,182.454239 905.539429,183.328049 906.266968,183.950592 
M903.328125,844.871033 
	C904.475830,844.108032 905.623474,843.345032 906.771179,842.582031 
	C906.511292,842.265564 906.251465,841.949036 905.991577,841.632568 
	C904.850098,842.671814 903.708557,843.710999 902.815247,844.686707 
	C902.815247,844.686707 902.714294,844.992249 902.714294,844.992249 
	C902.714294,844.992249 902.649963,844.636658 903.328125,844.871033 
M339.722168,343.107727 
	C339.807800,328.728210 339.893433,314.348663 340.564606,299.805237 
	C341.113831,299.253113 341.663055,298.700989 342.710205,297.767792 
	C342.827637,297.176514 342.945099,296.585266 343.557343,295.542328 
	C344.237701,294.036743 344.918091,292.531158 345.848663,290.281555 
	C345.206970,284.338593 342.987946,281.601227 337.682007,280.615295 
	C332.873016,279.721710 329.211945,281.331360 326.770081,286.656128 
	C325.244781,290.639191 326.304779,294.106445 329.063568,297.757385 
	C329.374268,297.821442 329.684967,297.885468 330.686920,298.390350 
	C331.315399,300.537689 332.461884,302.679047 332.486572,304.833313 
	C332.625916,316.987610 332.319763,329.148376 332.557343,341.299286 
	C332.635925,345.319397 331.749847,347.640228 327.732941,349.222534 
	C320.954498,351.892639 317.275513,357.010162 317.401550,364.667084 
	C317.689148,382.143738 317.801086,399.623291 317.975494,417.101746 
	C318.076355,427.213074 323.548096,433.515839 332.511261,437.055084 
	C335.715668,438.320404 339.216125,438.898407 342.624603,439.571808 
	C349.896210,441.008453 352.458984,439.512878 354.956482,432.414856 
	C360.181274,417.565643 361.077972,402.117920 360.805756,386.590912 
	C360.581238,373.784119 359.791260,360.992035 354.314545,348.241486 
	C350.879517,343.181061 348.532501,342.584137 340.647766,344.512543 
	C340.339172,344.358948 340.030609,344.205353 339.722168,343.107727 
M397.065826,523.503296 
	C399.683472,530.458801 403.312347,537.216248 404.721161,544.408508 
	C408.338623,562.876221 406.659149,580.913452 396.789703,597.484741 
	C388.809296,610.884216 377.801453,614.360229 363.362518,608.354919 
	C362.790222,608.116882 362.123901,608.105042 360.845612,607.864380 
	C360.845612,609.952148 360.843414,611.725769 360.845978,613.499390 
	C360.877258,635.161621 360.880402,656.823853 360.948242,678.486023 
	C361.034058,705.891602 377.451996,724.822571 404.630707,728.588562 
	C408.518951,729.127258 409.534424,730.753784 409.506805,734.386902 
	C409.401672,748.216125 409.448792,762.048523 409.650208,775.876709 
	C409.699097,779.232117 408.711823,780.770813 405.344452,781.873840 
	C380.686615,789.950867 371.184814,811.093506 372.539673,833.665894 
	C413.572174,833.665894 454.623444,833.665894 496.413269,833.665894 
	C496.039642,829.351013 495.942810,825.395508 495.320343,821.524536 
	C492.283813,802.640625 482.248596,789.125610 464.131683,782.326660 
	C461.311371,781.268250 460.625641,780.114502 460.640991,777.451782 
	C460.725647,762.788635 460.669830,748.124634 460.706451,733.461121 
	C460.709595,732.208374 461.036072,730.956421 461.217102,729.670349 
	C462.218781,729.518982 462.863953,729.338074 463.509735,729.335754 
	C492.336700,729.233582 521.163879,729.178162 549.990479,729.017883 
	C553.454102,728.998657 554.622681,730.343079 554.599365,733.756348 
	C554.500549,748.252502 554.542358,762.750549 554.677185,777.246521 
	C554.703247,780.052979 553.631714,781.268555 551.033813,782.242371 
	C529.893860,790.167114 520.125610,806.177368 518.557617,828.092041 
	C518.230713,832.661133 519.515259,834.040039 524.225708,834.015869 
	C562.050537,833.821350 599.876770,833.901367 637.702576,833.883118 
	C639.313660,833.882324 640.924622,833.740906 643.069946,833.639832 
	C642.663757,829.682434 642.277527,826.252930 641.964844,822.816650 
	C640.251099,803.981873 626.777893,787.127197 608.848572,781.938110 
	C605.604553,780.999207 604.705322,779.637329 604.742859,776.451233 
	C604.905701,762.622559 605.137817,748.781128 604.688477,734.965576 
	C604.515076,729.633728 606.021179,727.313110 611.230408,726.162109 
	C622.386414,723.697449 630.379333,716.622437 636.604065,707.296265 
	C642.560547,698.371765 644.616394,688.392334 644.631714,677.888245 
	C644.689880,638.063110 644.782227,598.237488 644.626160,558.412964 
	C644.596313,550.795349 644.025574,543.094727 642.781555,535.585205 
	C640.383728,521.109680 632.559143,510.045593 618.550720,505.172485 
	C610.717346,502.447510 601.993469,501.216705 593.659729,501.166718 
	C535.506592,500.817810 477.350586,500.925781 419.195557,500.971649 
	C412.213196,500.977173 405.208130,501.225586 398.255249,501.835968 
	C390.582642,502.509552 383.461121,504.848724 377.617096,510.654449 
	C391.637543,516.459656 391.637543,516.459656 397.065826,523.503296 
M638.210571,312.322418 
	C616.848816,280.912323 586.245361,263.464142 550.046082,255.306427 
	C536.665222,252.290985 522.748596,251.596359 509.048401,250.099152 
	C506.047577,249.771225 505.017517,248.815308 505.097229,245.839615 
	C505.266663,239.512650 504.976746,233.169922 505.272430,226.852234 
	C505.347260,225.253006 506.524628,223.049698 507.862610,222.272308 
	C516.200989,217.427612 517.426758,209.714035 515.573975,202.591339 
	C514.008240,196.572311 507.761017,191.764877 501.201538,191.288010 
	C493.750336,190.746368 487.680695,194.266876 484.654144,200.885925 
	C482.196289,206.261215 483.073151,215.368149 488.046692,218.243057 
	C495.681610,222.656342 495.505615,229.019485 495.166046,236.050842 
	C495.013550,239.207840 495.001465,242.398026 495.277313,245.542297 
	C495.589417,249.100082 494.084442,249.829880 490.728760,250.203613 
	C475.885132,251.856842 460.844849,252.838379 446.325104,256.077454 
	C416.354767,262.763275 390.535126,277.205505 370.424286,300.965790 
	C362.568329,310.247375 356.782959,320.662170 352.227692,332.069763 
	C360.793152,332.654663 366.154053,337.320221 368.608917,346.808777 
	C370.520813,354.198700 372.358826,361.702942 373.151337,369.269287 
	C375.488831,391.587067 375.379669,413.840912 368.804871,435.605530 
	C366.248749,444.067169 362.179596,451.036957 351.548828,450.809998 
	C353.597473,464.587463 359.697327,474.943970 372.186188,481.016998 
	C381.016876,485.311157 390.551025,485.619415 399.997803,485.635468 
	C465.318665,485.746460 530.639832,485.681732 595.960876,485.614258 
	C602.452271,485.607544 608.951172,485.337311 615.432983,484.957367 
	C629.725098,484.119446 642.668823,479.932526 649.892334,466.572479 
	C653.370483,460.139557 655.448120,452.623413 656.568726,445.352570 
	C657.359558,440.221436 659.534363,437.994843 663.807190,436.114563 
	C671.940308,432.535309 677.756958,426.658813 677.936646,417.264954 
	C678.261414,400.290527 678.316162,383.304138 678.071899,366.328644 
	C677.953369,358.092499 673.940369,351.600830 666.458435,347.874725 
	C663.507446,346.405151 662.967224,344.553284 662.995178,341.604004 
	C663.109009,329.608032 663.028442,317.609528 662.929932,305.612671 
	C662.905090,302.585327 663.148621,300.178314 665.789673,297.768188 
	C670.306274,293.646545 670.045166,286.709503 666.039612,283.026123 
	C662.280518,279.569397 655.241699,279.711761 651.912170,283.311798 
	C648.081421,287.453827 648.263672,294.061768 652.980225,297.964233 
	C655.434326,299.994690 655.827209,302.039429 655.799622,304.811401 
	C655.686829,316.140625 655.720886,327.471252 655.670776,338.801239 
	C655.665283,340.047638 655.466736,341.293152 655.357666,342.539093 
	C654.911316,342.749329 654.464966,342.959595 654.018555,343.169830 
	C652.972290,341.611786 651.734680,340.148071 650.911804,338.479797 
	C646.731079,330.004669 642.657959,321.476501 638.210571,312.322418 
M330.728882,766.154968 
	C335.393066,753.679688 333.548889,741.689697 328.173187,729.900696 
	C327.565369,728.567749 327.094543,726.556396 327.660309,725.396057 
	C337.083527,706.071350 331.022491,684.077881 314.352997,672.721008 
	C313.053345,671.835571 312.059265,669.504456 312.074463,667.855896 
	C312.146515,660.032898 312.484650,652.203796 313.049713,644.400208 
	C313.176270,642.652771 314.429596,640.890198 315.452393,639.322632 
	C318.417664,634.778076 323.489685,630.601868 324.160370,625.783569 
	C325.411285,616.796387 331.023071,612.306091 337.303528,607.630066 
	C340.639496,605.146362 343.632324,602.164307 347.117767,599.935425 
	C348.745850,598.894287 351.405731,598.338318 353.203644,598.877380 
	C363.488342,601.961182 373.865509,598.683960 379.132782,589.307312 
	C387.468201,574.468994 390.144867,558.647400 384.564880,542.172363 
	C377.115509,520.177856 355.314148,515.851562 339.580048,532.966492 
	C334.024384,539.009766 331.939819,546.453857 329.923737,554.053894 
	C329.448914,555.843872 328.448547,557.785706 327.099976,559.005371 
	C318.212341,567.043396 309.250580,575.006409 300.093689,582.734009 
	C298.255920,584.284912 295.512848,585.426025 293.124481,585.550293 
	C280.760651,586.193176 271.854828,592.123840 266.817139,603.131836 
	C262.138885,613.354431 263.158386,623.461975 269.697571,632.910400 
	C270.922333,634.680115 271.891754,637.112488 271.828094,639.204041 
	C271.549835,648.348083 270.972931,657.490112 270.183105,666.604980 
	C270.042053,668.232971 268.756012,670.487915 267.367004,671.173096 
	C244.998322,682.208984 241.086456,708.178772 250.787048,725.328613 
	C251.609314,726.782349 251.880692,729.370056 251.140640,730.752563 
	C246.030533,740.299072 245.122299,750.340088 246.818848,760.804077 
	C248.639908,772.036133 258.686798,782.290466 270.163208,784.320984 
	C270.163208,771.139709 270.163208,758.017822 270.163208,744.324097 
	C283.413757,750.636841 296.047455,750.128296 309.760498,742.939026 
	C309.760498,757.329895 309.760498,770.583191 309.760498,784.083801 
	C319.707458,781.657410 325.713287,776.468262 330.728882,766.154968 
M756.099976,491.631226 
	C758.367554,486.451477 760.437866,481.170044 763.022827,476.153839 
	C763.798462,474.648804 765.938049,473.044525 767.572937,472.906158 
	C788.468750,471.137665 803.538025,454.879669 802.814026,433.853180 
	C802.634583,428.641510 804.232788,425.358459 807.894165,421.921356 
	C818.503296,411.962067 822.771667,399.672668 819.546753,385.234406 
	C817.941406,378.047363 814.175842,372.204865 807.556396,367.711029 
	C802.570312,380.384888 797.752197,392.631775 792.570068,405.803925 
	C782.603271,394.420349 770.507019,390.046600 756.198059,390.322906 
	C760.963135,377.607880 765.446594,365.644470 770.257446,352.807281 
	C766.690125,353.130951 764.367981,353.139282 762.129822,353.576904 
	C745.019775,356.922546 734.058899,370.277832 733.916016,389.046692 
	C733.864624,395.807739 732.884705,400.834106 727.372009,405.789001 
	C717.010620,415.102020 713.154907,437.278046 724.735168,453.151306 
	C726.644836,455.768829 726.847717,457.805237 725.243469,460.775452 
	C721.771667,467.203583 719.064148,474.044708 715.587341,480.469818 
	C714.366272,482.726349 711.927124,484.405945 709.837402,486.092773 
	C705.747070,489.394531 699.657776,491.669586 697.729248,495.892090 
	C693.940491,504.187500 687.422119,507.303528 679.842224,509.973389 
	C675.612854,511.463104 671.436035,513.162354 667.389038,515.089600 
	C664.351929,516.535950 662.057434,516.459473 659.401001,514.079590 
	C654.791504,509.949890 649.229370,507.880402 642.288635,507.739655 
	C661.970764,530.940613 659.785706,557.240295 654.946899,584.720093 
	C665.443359,579.563110 672.614807,572.790833 676.575500,562.569580 
	C677.518005,560.137451 679.932312,557.737366 682.287842,556.488831 
	C690.347900,552.216858 698.632812,548.352234 706.954285,544.603760 
	C708.694153,543.820007 711.166199,543.552002 712.945435,544.133606 
	C734.807739,551.279602 756.284668,534.174561 752.690430,511.549774 
	C751.538025,504.295959 752.133606,498.307343 756.099976,491.631226 
M461.506012,4.029809 
	C461.713593,3.786542 461.921143,3.543275 462.128693,3.299998 
	C461.971924,3.261011 461.805969,3.166776 461.659760,3.191164 
	C458.464661,3.724133 455.271790,4.270275 452.573273,4.729661 
	C454.989563,4.547906 457.930603,4.326680 461.506012,4.029809 
M911.750122,836.134033 
	C911.681458,835.987183 911.641296,835.813416 911.535583,835.701660 
	C911.442017,835.602600 911.225891,835.482788 911.148560,835.525513 
	C909.873291,836.230347 908.611511,836.959412 907.346680,837.683167 
	C907.796387,838.161499 908.246094,838.639832 908.695740,839.118164 
	C909.723206,838.265076 910.750732,837.411987 911.750122,836.134033 
M895.734558,853.567627 
	C896.739197,852.917480 897.743774,852.267334 898.748413,851.617126 
	C898.274170,851.112305 897.799988,850.607483 897.325745,850.102661 
	C896.836060,851.061157 896.346375,852.019653 895.734558,853.567627 
M895.010437,171.395111 
	C895.169983,171.433350 895.335083,171.515228 895.487183,171.495728 
	C895.604370,171.480698 895.808411,171.278198 895.798401,171.261032 
	C895.315002,170.429733 894.812500,169.609512 894.312134,168.788071 
	C894.041321,169.010971 893.770447,169.233871 893.499634,169.456772 
	C893.854858,169.963806 894.210144,170.470856 895.010437,171.395111 
M893.174377,856.239624 
	C893.107117,856.414856 893.039856,856.590149 892.972473,856.765381 
	C892.938110,856.578491 892.903748,856.391602 893.174377,856.239624 
M860.726318,136.137009 
	C860.607849,136.136551 860.489319,136.136093 860.370850,136.135635 
	C860.496033,136.060883 860.621155,135.986145 860.726318,136.137009 
M901.121399,847.497192 
	C901.121399,847.497192 900.886841,847.510254 900.886841,847.510254 
	C900.886841,847.510254 901.083008,847.366272 901.121399,847.497192 
M894.619385,854.423340 
	C894.619385,854.423340 894.713318,854.549927 894.619385,854.423340 
M901.474670,178.507477 
	C901.474670,178.507477 901.499573,178.562820 901.474670,178.507477 
M892.405884,167.570740 
	C892.405884,167.570740 892.474060,167.540390 892.405884,167.570740 
z"/>
<path fill="#878686" opacity="1.000000" stroke="none" 
	d="
M555.051208,1024.999023 
	C566.994995,1020.081055 579.889709,1021.126648 592.377380,1019.653809 
	C587.583557,1020.477600 582.813110,1021.500549 577.989197,1022.068420 
	C573.272034,1022.623840 568.497314,1022.679626 563.756592,1023.062317 
	C563.250427,1023.103210 562.802429,1023.864502 562.663696,1024.645752 
	C560.629456,1025.000000 558.258850,1025.000000 555.456543,1024.999512 
	C555.024780,1024.999023 555.051208,1024.999023 555.051208,1024.999023 
z"/>
<path fill="#666769" opacity="1.000000" stroke="none" 
	d="
M499.531342,1.000001 
	C489.913300,1.715067 479.830353,2.494820 469.735870,3.074271 
	C468.250732,3.159519 466.711029,2.294486 465.098297,1.434566 
	C476.354218,1.000000 487.708466,1.000000 499.531342,1.000001 
z"/>
<path fill="#767877" opacity="1.000000" stroke="none" 
	d="
M554.912109,1024.534912 
	C555.051208,1024.999023 555.024780,1024.999023 555.012390,1024.999512 
	C545.645752,1025.000000 536.291565,1025.000000 526.468628,1025.000000 
	C533.579712,1024.355835 541.153015,1023.610107 548.743347,1023.136536 
	C550.726074,1023.012878 552.761658,1023.736389 554.912109,1024.534912 
z"/>
<path fill="#515250" opacity="1.000000" stroke="none" 
	d="
M1025.000000,501.531342 
	C1024.305542,493.630341 1023.583679,485.262665 1022.975342,476.886749 
	C1022.932373,476.294525 1023.725830,475.641541 1024.565186,475.008423 
	C1025.000000,483.687561 1025.000000,492.375122 1025.000000,501.531342 
z"/>
<path fill="#434444" opacity="1.000000" stroke="none" 
	d="
M477.468628,1025.000000 
	C477.864227,1024.306519 478.766907,1022.971436 479.586670,1023.020508 
	C486.564240,1023.438477 493.526733,1024.107910 500.746857,1024.851074 
	C493.312408,1025.000000 485.624847,1025.000000 477.468628,1025.000000 
z"/>
<path fill="#96BC56" opacity="1.000000" stroke="none" 
	d="
M396.894226,523.182617 
	C391.637543,516.459656 391.637543,516.459656 377.617096,510.654449 
	C383.461121,504.848724 390.582642,502.509552 398.255249,501.835968 
	C405.208130,501.225586 412.213196,500.977173 419.195557,500.971649 
	C477.350586,500.925781 535.506592,500.817810 593.659729,501.166718 
	C601.993469,501.216705 610.717346,502.447510 618.550720,505.172485 
	C632.559143,510.045593 640.383728,521.109680 642.781555,535.585205 
	C644.025574,543.094727 644.596313,550.795349 644.626160,558.412964 
	C644.782227,598.237488 644.689880,638.063110 644.631714,677.888245 
	C644.616394,688.392334 642.560547,698.371765 636.604065,707.296265 
	C630.379333,716.622437 622.386414,723.697449 611.230408,726.162109 
	C606.021179,727.313110 604.515076,729.633728 604.688477,734.965576 
	C605.137817,748.781128 604.905701,762.622559 604.742859,776.451233 
	C604.705322,779.637329 605.604553,780.999207 608.848572,781.938110 
	C626.777893,787.127197 640.251099,803.981873 641.964844,822.816650 
	C642.277527,826.252930 642.663757,829.682434 643.069946,833.639832 
	C640.924622,833.740906 639.313660,833.882324 637.702576,833.883118 
	C599.876770,833.901367 562.050537,833.821350 524.225708,834.015869 
	C519.515259,834.040039 518.230713,832.661133 518.557617,828.092041 
	C520.125610,806.177368 529.893860,790.167114 551.033813,782.242371 
	C553.631714,781.268555 554.703247,780.052979 554.677185,777.246521 
	C554.542358,762.750549 554.500549,748.252502 554.599365,733.756348 
	C554.622681,730.343079 553.454102,728.998657 549.990479,729.017883 
	C521.163879,729.178162 492.336700,729.233582 463.509735,729.335754 
	C462.863953,729.338074 462.218781,729.518982 461.217102,729.670349 
	C461.036072,730.956421 460.709595,732.208374 460.706451,733.461121 
	C460.669830,748.124634 460.725647,762.788635 460.640991,777.451782 
	C460.625641,780.114502 461.311371,781.268250 464.131683,782.326660 
	C482.248596,789.125610 492.283813,802.640625 495.320343,821.524536 
	C495.942810,825.395508 496.039642,829.351013 496.413269,833.665894 
	C454.623444,833.665894 413.572174,833.665894 372.539673,833.665894 
	C371.184814,811.093506 380.686615,789.950867 405.344452,781.873840 
	C408.711823,780.770813 409.699097,779.232117 409.650208,775.876709 
	C409.448792,762.048523 409.401672,748.216125 409.506805,734.386902 
	C409.534424,730.753784 408.518951,729.127258 404.630707,728.588562 
	C377.451996,724.822571 361.034058,705.891602 360.948242,678.486023 
	C360.880402,656.823853 360.877258,635.161621 360.845978,613.499390 
	C360.843414,611.725769 360.845612,609.952148 360.845612,607.864380 
	C362.123901,608.105042 362.790222,608.116882 363.362518,608.354919 
	C377.801453,614.360229 388.809296,610.884216 396.789703,597.484741 
	C406.659149,580.913452 408.338623,562.876221 404.721161,544.408508 
	C403.312347,537.216248 399.683472,530.458801 396.894226,523.182617 
M567.594910,599.694458 
	C568.928711,606.391846 572.645935,609.562500 579.200684,609.551941 
	C589.691345,609.535034 600.182373,609.438477 610.672607,609.492493 
	C618.473511,609.532654 622.718689,605.581299 622.784241,597.674255 
	C622.871155,587.183960 622.822205,576.692139 622.771729,566.201294 
	C622.728821,557.265259 619.103271,553.500122 609.999512,553.339661 
	C599.844482,553.160645 589.684143,553.231628 579.526428,553.272461 
	C571.830688,553.303345 567.567383,557.634155 567.554993,565.359131 
	C567.537048,576.516235 567.568787,587.673462 567.594910,599.694458 
z"/>
<path fill="#95BB56" opacity="1.000000" stroke="none" 
	d="
M638.378906,312.644653 
	C642.657959,321.476501 646.731079,330.004669 650.911804,338.479797 
	C651.734680,340.148071 652.972290,341.611786 654.018555,343.169830 
	C654.464966,342.959595 654.911316,342.749329 655.357666,342.539093 
	C655.466736,341.293152 655.665283,340.047638 655.670776,338.801239 
	C655.720886,327.471252 655.686829,316.140625 655.799622,304.811401 
	C655.827209,302.039429 655.434326,299.994690 652.980225,297.964233 
	C648.263672,294.061768 648.081421,287.453827 651.912170,283.311798 
	C655.241699,279.711761 662.280518,279.569397 666.039612,283.026123 
	C670.045166,286.709503 670.306274,293.646545 665.789673,297.768188 
	C663.148621,300.178314 662.905090,302.585327 662.929932,305.612671 
	C663.028442,317.609528 663.109009,329.608032 662.995178,341.604004 
	C662.967224,344.553284 663.507446,346.405151 666.458435,347.874725 
	C673.940369,351.600830 677.953369,358.092499 678.071899,366.328644 
	C678.316162,383.304138 678.261414,400.290527 677.936646,417.264954 
	C677.756958,426.658813 671.940308,432.535309 663.807190,436.114563 
	C659.534363,437.994843 657.359558,440.221436 656.568726,445.352570 
	C655.448120,452.623413 653.370483,460.139557 649.892334,466.572479 
	C642.668823,479.932526 629.725098,484.119446 615.432983,484.957367 
	C608.951172,485.337311 602.452271,485.607544 595.960876,485.614258 
	C530.639832,485.681732 465.318665,485.746460 399.997803,485.635468 
	C390.551025,485.619415 381.016876,485.311157 372.186188,481.016998 
	C359.697327,474.943970 353.597473,464.587463 351.548828,450.809998 
	C362.179596,451.036957 366.248749,444.067169 368.804871,435.605530 
	C375.379669,413.840912 375.488831,391.587067 373.151337,369.269287 
	C372.358826,361.702942 370.520813,354.198700 368.608917,346.808777 
	C366.154053,337.320221 360.793152,332.654663 352.227692,332.069763 
	C356.782959,320.662170 362.568329,310.247375 370.424286,300.965790 
	C390.535126,277.205505 416.354767,262.763275 446.325104,256.077454 
	C460.844849,252.838379 475.885132,251.856842 490.728760,250.203613 
	C494.084442,249.829880 495.589417,249.100082 495.277313,245.542297 
	C495.001465,242.398026 495.013550,239.207840 495.166046,236.050842 
	C495.505615,229.019485 495.681610,222.656342 488.046692,218.243057 
	C483.073151,215.368149 482.196289,206.261215 484.654144,200.885925 
	C487.680695,194.266876 493.750336,190.746368 501.201538,191.288010 
	C507.761017,191.764877 514.008240,196.572311 515.573975,202.591339 
	C517.426758,209.714035 516.200989,217.427612 507.862610,222.272308 
	C506.524628,223.049698 505.347260,225.253006 505.272430,226.852234 
	C504.976746,233.169922 505.266663,239.512650 505.097229,245.839615 
	C505.017517,248.815308 506.047577,249.771225 509.048401,250.099152 
	C522.748596,251.596359 536.665222,252.290985 550.046082,255.306427 
	C586.245361,263.464142 616.848816,280.912323 638.378906,312.644653 
M449.544678,390.770294 
	C455.094452,401.391449 465.121216,406.797852 476.109283,405.093781 
	C487.097076,403.389832 494.877716,395.844849 496.506775,384.923584 
	C498.067596,374.459595 495.447052,365.223816 486.513275,358.980804 
	C478.219818,353.185211 469.024994,352.906677 460.101624,357.604919 
	C448.849976,363.529053 444.733368,376.427948 449.544678,390.770294 
M575.826965,397.666138 
	C576.439331,398.228729 577.034363,398.811554 577.666626,399.350861 
	C585.687195,406.192047 597.083313,407.190704 605.998413,401.841187 
	C614.972656,396.456116 619.527039,385.501068 617.314148,374.622559 
	C615.180176,364.132660 606.863647,356.143646 596.785583,354.902527 
	C586.026917,353.577606 577.265076,358.128265 571.950562,367.801239 
	C566.966980,376.871918 568.330383,388.715088 575.826965,397.666138 
z"/>
<path fill="#95BA55" opacity="1.000000" stroke="none" 
	d="
M330.623047,766.522949 
	C325.713287,776.468262 319.707458,781.657410 309.760498,784.083801 
	C309.760498,770.583191 309.760498,757.329895 309.760498,742.939026 
	C296.047455,750.128296 283.413757,750.636841 270.163208,744.324097 
	C270.163208,758.017822 270.163208,771.139709 270.163208,784.320984 
	C258.686798,782.290466 248.639908,772.036133 246.818848,760.804077 
	C245.122299,750.340088 246.030533,740.299072 251.140640,730.752563 
	C251.880692,729.370056 251.609314,726.782349 250.787048,725.328613 
	C241.086456,708.178772 244.998322,682.208984 267.367004,671.173096 
	C268.756012,670.487915 270.042053,668.232971 270.183105,666.604980 
	C270.972931,657.490112 271.549835,648.348083 271.828094,639.204041 
	C271.891754,637.112488 270.922333,634.680115 269.697571,632.910400 
	C263.158386,623.461975 262.138885,613.354431 266.817139,603.131836 
	C271.854828,592.123840 280.760651,586.193176 293.124481,585.550293 
	C295.512848,585.426025 298.255920,584.284912 300.093689,582.734009 
	C309.250580,575.006409 318.212341,567.043396 327.099976,559.005371 
	C328.448547,557.785706 329.448914,555.843872 329.923737,554.053894 
	C331.939819,546.453857 334.024384,539.009766 339.580048,532.966492 
	C355.314148,515.851562 377.115509,520.177856 384.564880,542.172363 
	C390.144867,558.647400 387.468201,574.468994 379.132782,589.307312 
	C373.865509,598.683960 363.488342,601.961182 353.203644,598.877380 
	C351.405731,598.338318 348.745850,598.894287 347.117767,599.935425 
	C343.632324,602.164307 340.639496,605.146362 337.303528,607.630066 
	C331.023071,612.306091 325.411285,616.796387 324.160370,625.783569 
	C323.489685,630.601868 318.417664,634.778076 315.452393,639.322632 
	C314.429596,640.890198 313.176270,642.652771 313.049713,644.400208 
	C312.484650,652.203796 312.146515,660.032898 312.074463,667.855896 
	C312.059265,669.504456 313.053345,671.835571 314.352997,672.721008 
	C331.022491,684.077881 337.083527,706.071350 327.660309,725.396057 
	C327.094543,726.556396 327.565369,728.567749 328.173187,729.900696 
	C333.548889,741.689697 335.393066,753.679688 330.623047,766.522949 
z"/>
<path fill="#94B955" opacity="1.000000" stroke="none" 
	d="
M755.908081,491.955322 
	C752.133606,498.307343 751.538025,504.295959 752.690430,511.549774 
	C756.284668,534.174561 734.807739,551.279602 712.945435,544.133606 
	C711.166199,543.552002 708.694153,543.820007 706.954285,544.603760 
	C698.632812,548.352234 690.347900,552.216858 682.287842,556.488831 
	C679.932312,557.737366 677.518005,560.137451 676.575500,562.569580 
	C672.614807,572.790833 665.443359,579.563110 654.946899,584.720093 
	C659.785706,557.240295 661.970764,530.940613 642.288635,507.739655 
	C649.229370,507.880402 654.791504,509.949890 659.401001,514.079590 
	C662.057434,516.459473 664.351929,516.535950 667.389038,515.089600 
	C671.436035,513.162354 675.612854,511.463104 679.842224,509.973389 
	C687.422119,507.303528 693.940491,504.187500 697.729248,495.892090 
	C699.657776,491.669586 705.747070,489.394531 709.837402,486.092773 
	C711.927124,484.405945 714.366272,482.726349 715.587341,480.469818 
	C719.064148,474.044708 721.771667,467.203583 725.243469,460.775452 
	C726.847717,457.805237 726.644836,455.768829 724.735168,453.151306 
	C713.154907,437.278046 717.010620,415.102020 727.372009,405.789001 
	C732.884705,400.834106 733.864624,395.807739 733.916016,389.046692 
	C734.058899,370.277832 745.019775,356.922546 762.129822,353.576904 
	C764.367981,353.139282 766.690125,353.130951 770.257446,352.807281 
	C765.446594,365.644470 760.963135,377.607880 756.198059,390.322906 
	C770.507019,390.046600 782.603271,394.420349 792.570068,405.803925 
	C797.752197,392.631775 802.570312,380.384888 807.556396,367.711029 
	C814.175842,372.204865 817.941406,378.047363 819.546753,385.234406 
	C822.771667,399.672668 818.503296,411.962067 807.894165,421.921356 
	C804.232788,425.358459 802.634583,428.641510 802.814026,433.853180 
	C803.538025,454.879669 788.468750,471.137665 767.572937,472.906158 
	C765.938049,473.044525 763.798462,474.648804 763.022827,476.153839 
	C760.437866,481.170044 758.367554,486.451477 755.908081,491.955322 
z"/>
<path fill="#94B855" opacity="1.000000" stroke="none" 
	d="
M354.531158,348.988800 
	C359.791260,360.992035 360.581238,373.784119 360.805756,386.590912 
	C361.077972,402.117920 360.181274,417.565643 354.956482,432.414856 
	C352.458984,439.512878 349.896210,441.008453 342.624603,439.571808 
	C339.216125,438.898407 335.715668,438.320404 332.511261,437.055084 
	C323.548096,433.515839 318.076355,427.213074 317.975494,417.101746 
	C317.801086,399.623291 317.689148,382.143738 317.401550,364.667084 
	C317.275513,357.010162 320.954498,351.892639 327.732941,349.222534 
	C331.749847,347.640228 332.635925,345.319397 332.557343,341.299286 
	C332.319763,329.148376 332.625916,316.987610 332.486572,304.833313 
	C332.461884,302.679047 331.315399,300.537689 330.328674,297.970184 
	C329.776581,297.247131 329.582764,296.944244 329.388916,296.641357 
	C329.221863,296.850830 329.054810,297.060303 328.887756,297.269806 
	C326.304779,294.106445 325.244781,290.639191 327.263672,286.454346 
	C332.188721,289.251801 333.903442,283.965637 336.333191,284.264130 
	C339.421600,286.517975 342.510040,288.771790 345.598480,291.025604 
	C344.918091,292.531158 344.237701,294.036743 342.865173,295.768860 
	C339.585052,296.299774 336.774811,296.128784 334.534241,297.176239 
	C333.788788,297.524750 334.505737,300.998505 334.549713,303.043610 
	C334.553253,303.208282 334.511078,303.373535 334.509003,303.538788 
	C334.343231,316.786743 334.096527,330.034760 334.096741,343.282745 
	C334.096771,345.494385 335.009308,347.764587 335.786652,349.903564 
	C336.874176,352.896027 338.958862,353.002228 341.817963,352.084656 
	C345.960236,350.755249 350.284515,349.992981 354.531158,348.988800 
z"/>
<path fill="#9DBE5B" opacity="1.000000" stroke="none" 
	d="
M354.422852,348.615143 
	C350.284515,349.992981 345.960236,350.755249 341.817963,352.084656 
	C338.958862,353.002228 336.874176,352.896027 335.786652,349.903564 
	C335.009308,347.764587 334.096771,345.494385 334.096741,343.282745 
	C334.096527,330.034760 334.343231,316.786743 334.509003,303.538788 
	C334.511078,303.373535 334.553253,303.208282 334.549713,303.043610 
	C334.505737,300.998505 333.788788,297.524750 334.534241,297.176239 
	C336.774811,296.128784 339.585052,296.299774 342.617798,295.994690 
	C342.945099,296.585266 342.827637,297.176514 342.149231,297.998016 
	C341.051880,298.808563 340.515472,299.388855 339.979065,299.969147 
	C339.893433,314.348663 339.807800,328.728210 339.600830,343.737793 
	C339.997803,344.533234 340.516113,344.698608 341.034454,344.863983 
	C348.532501,342.584137 350.879517,343.181061 354.422852,348.615143 
z"/>
<path fill="#8EAF50" opacity="1.000000" stroke="none" 
	d="
M345.723572,290.653564 
	C342.510040,288.771790 339.421600,286.517975 336.333191,284.264130 
	C333.903442,283.965637 332.188721,289.251801 327.482544,286.133972 
	C329.211945,281.331360 332.873016,279.721710 337.682007,280.615295 
	C342.987946,281.601227 345.206970,284.338593 345.723572,290.653564 
z"/>
<path fill="#878686" opacity="1.000000" stroke="none" 
	d="
M877.492493,152.433990 
	C873.085388,148.100037 868.678284,143.766083 864.286011,139.120819 
	C864.300842,138.809494 864.240234,138.867386 864.240234,138.867386 
	C868.786804,142.996948 873.333435,147.126511 877.844055,151.706879 
	C877.808105,152.157669 877.492493,152.433990 877.492493,152.433990 
z"/>
<path fill="#797878" opacity="1.000000" stroke="none" 
	d="
M878.576599,871.538330 
	C882.008850,867.883545 885.441101,864.228821 888.873352,860.574036 
	C889.231140,860.904846 889.588928,861.235657 889.946716,861.566467 
	C886.547180,865.005737 883.147644,868.445007 879.299194,871.859009 
	C878.850220,871.833679 878.576599,871.538330 878.576599,871.538330 
z"/>
<path fill="#878686" opacity="1.000000" stroke="none" 
	d="
M890.484070,164.545380 
	C887.609436,162.052246 884.734802,159.559097 881.856628,156.612854 
	C881.853088,156.159775 882.142090,155.851273 882.142090,155.851257 
	C884.798523,158.562881 887.454956,161.274506 890.279175,164.283249 
	C890.446899,164.580368 890.484070,164.545380 890.484070,164.545380 
z"/>
<path fill="#666769" opacity="1.000000" stroke="none" 
	d="
M461.188843,4.067631 
	C457.930603,4.326680 454.989563,4.547906 452.573273,4.729661 
	C455.271790,4.270275 458.464661,3.724133 461.659760,3.191164 
	C461.805969,3.166776 461.971924,3.261011 462.128693,3.300002 
	C461.921143,3.543275 461.713593,3.786542 461.188843,4.067631 
z"/>
<path fill="#797878" opacity="1.000000" stroke="none" 
	d="
M911.764160,836.346436 
	C910.750732,837.411987 909.723206,838.265076 908.695740,839.118164 
	C908.246094,838.639832 907.796387,838.161499 907.346680,837.683167 
	C908.611511,836.959412 909.873291,836.230347 911.148560,835.525513 
	C911.225891,835.482788 911.442017,835.602600 911.535583,835.701660 
	C911.641296,835.813416 911.681458,835.987183 911.764160,836.346436 
z"/>
<path fill="#797878" opacity="1.000000" stroke="none" 
	d="
M895.795654,853.272949 
	C896.346375,852.019653 896.836060,851.061157 897.325745,850.102661 
	C897.799988,850.607483 898.274170,851.112305 898.748413,851.617126 
	C897.743774,852.267334 896.739197,852.917480 895.795654,853.272949 
z"/>
<path fill="#797878" opacity="1.000000" stroke="none" 
	d="
M902.567139,844.750244 
	C903.708557,843.710999 904.850098,842.671814 905.991577,841.632568 
	C906.251465,841.949036 906.511292,842.265564 906.771179,842.582031 
	C905.623474,843.345032 904.475830,844.108032 902.988159,844.796692 
	C902.648132,844.722351 902.567139,844.750305 902.567139,844.750244 
z"/>
<path fill="#878686" opacity="1.000000" stroke="none" 
	d="
M894.787903,171.186493 
	C894.210144,170.470856 893.854858,169.963806 893.499634,169.456772 
	C893.770447,169.233871 894.041321,169.010971 894.312134,168.788071 
	C894.812500,169.609512 895.315002,170.429733 895.798401,171.261032 
	C895.808411,171.278198 895.604370,171.480698 895.487183,171.495728 
	C895.335083,171.515228 895.169983,171.433350 894.787903,171.186493 
z"/>
<path fill="#878686" opacity="1.000000" stroke="none" 
	d="
M905.993896,184.201843 
	C905.539429,183.328049 905.084961,182.454239 904.630493,181.580444 
	C904.543457,181.625427 904.456421,181.670395 904.369385,181.715378 
	C904.680054,182.640244 904.990723,183.565109 905.641174,184.320679 
	C905.980896,184.151398 905.993896,184.201828 905.993896,184.201843 
z"/>
<path fill="#6D873B" opacity="1.000000" stroke="none" 
	d="
M340.271851,299.887207 
	C340.515472,299.388855 341.051880,298.808563 341.900269,298.188538 
	C341.663055,298.700989 341.113831,299.253113 340.271851,299.887207 
z"/>
<path fill="#6D873B" opacity="1.000000" stroke="none" 
	d="
M340.841125,344.688263 
	C340.516113,344.698608 339.997803,344.533234 339.600769,344.209778 
	C340.030609,344.205353 340.339172,344.358948 340.841125,344.688263 
z"/>
<path fill="#878686" opacity="1.000000" stroke="none" 
	d="
M908.894775,186.550964 
	C909.099670,186.906738 909.304565,187.262497 909.509521,187.618240 
	C909.443787,187.629730 909.378052,187.641235 909.312256,187.652740 
	C909.360046,187.359970 909.407776,187.067230 909.209717,186.697632 
	C908.963989,186.620773 908.894775,186.550964 908.894775,186.550964 
z"/>
<path fill="#9DBE5B" opacity="1.000000" stroke="none" 
	d="
M328.975647,297.513611 
	C329.054810,297.060303 329.221863,296.850830 329.388916,296.641357 
	C329.582764,296.944244 329.776581,297.247131 329.983032,297.749756 
	C329.684967,297.885468 329.374268,297.821442 328.975647,297.513611 
z"/>
<path fill="#797878" opacity="1.000000" stroke="none" 
	d="
M893.021851,856.222168 
	C892.903748,856.391602 892.938110,856.578491 892.972534,856.765381 
	C893.039856,856.590149 893.107117,856.414856 893.021851,856.222168 
z"/>
<path fill="#878686" opacity="1.000000" stroke="none" 
	d="
M860.736328,136.024200 
	C860.621155,135.986145 860.496033,136.060883 860.370850,136.135620 
	C860.489319,136.136093 860.607849,136.136551 860.736328,136.024200 
z"/>
<path fill="#797878" opacity="1.000000" stroke="none" 
	d="
M901.102173,847.431763 
	C901.083008,847.366272 900.886841,847.510254 900.886841,847.510254 
	C900.886841,847.510254 901.121399,847.497192 901.102173,847.431763 
z"/>
<path fill="#878686" opacity="1.000000" stroke="none" 
	d="
M897.651123,175.411926 
	C897.822449,175.530853 897.993835,175.649780 898.165222,175.768677 
	C898.200073,175.631516 898.304138,175.410202 898.257629,175.371872 
	C898.061829,175.210602 897.820984,175.103958 897.606201,175.164764 
	C897.615784,175.352173 897.651123,175.411911 897.651123,175.411926 
z"/>
<path fill="#878686" opacity="1.000000" stroke="none" 
	d="
M897.581299,175.348389 
	C897.660706,175.170868 897.774597,174.997131 897.888489,174.823380 
	C897.718994,174.981033 897.549561,175.138702 897.515625,175.354141 
	C897.651123,175.411911 897.615784,175.352173 897.581299,175.348389 
z"/>
<path fill="#797878" opacity="1.000000" stroke="none" 
	d="
M894.666382,854.486633 
	C894.713318,854.549927 894.619385,854.423340 894.666382,854.486633 
z"/>
<path fill="#878686" opacity="1.000000" stroke="none" 
	d="
M901.487122,178.535156 
	C901.499573,178.562820 901.474670,178.507477 901.487122,178.535156 
z"/>
<path fill="#878686" opacity="1.000000" stroke="none" 
	d="
M905.991943,184.129150 
	C906.091003,184.054810 906.178955,184.002701 906.130432,184.076202 
	C905.993896,184.201828 905.980896,184.151398 905.991943,184.129150 
z"/>
<path fill="#797878" opacity="1.000000" stroke="none" 
	d="
M877.105652,874.099487 
	C876.798096,874.300903 876.490540,874.502380 876.182922,874.703857 
	C876.161987,874.459961 876.141113,874.216125 876.481628,873.921387 
	C876.843079,873.870544 877.105652,874.099426 877.105652,874.099487 
z"/>
<path fill="#797878" opacity="1.000000" stroke="none" 
	d="
M876.711182,873.756958 
	C876.767334,873.372498 876.955444,873.101746 877.502686,872.853149 
	C877.861816,872.875305 878.105591,873.097046 878.105591,873.097046 
	C877.939575,873.387085 877.773560,873.677063 877.356567,874.033203 
	C877.105652,874.099426 876.843079,873.870544 876.711182,873.756958 
z"/>
<path fill="#797878" opacity="1.000000" stroke="none" 
	d="
M878.986511,871.981873 
	C878.944092,872.403748 878.765442,872.677490 878.346191,873.024170 
	C878.105591,873.097046 877.861816,872.875305 877.739075,872.764404 
	C877.789795,872.367004 877.963257,872.080444 878.356628,871.666138 
	C878.576599,871.538330 878.850220,871.833679 878.986511,871.981873 
z"/>
<path fill="#878686" opacity="1.000000" stroke="none" 
	d="
M909.012695,186.613724 
	C908.967102,186.624786 908.872925,186.642899 908.778687,186.661026 
	C908.893921,186.701538 909.009155,186.742035 909.009583,186.666748 
	C908.894775,186.550964 908.963989,186.620773 909.012695,186.613724 
z"/>
<path fill="#878686" opacity="1.000000" stroke="none" 
	d="
M892.439941,167.555573 
	C892.474060,167.540390 892.405884,167.570740 892.439941,167.555573 
z"/>
<path fill="#878686" opacity="1.000000" stroke="none" 
	d="
M878.534851,153.392548 
	C878.198975,153.318161 877.926880,153.144135 877.605469,152.652237 
	C877.492493,152.433990 877.808105,152.157669 877.966064,152.019669 
	C878.404236,152.058807 878.684448,152.235962 878.890625,152.781677 
	C878.816650,153.150238 878.534851,153.392548 878.534851,153.392548 
z"/>
<path fill="#878686" opacity="1.000000" stroke="none" 
	d="
M890.445435,164.578461 
	C890.486023,164.897141 890.528015,165.217728 890.570068,165.538315 
	C890.454590,165.357025 890.339233,165.175735 890.353943,164.769928 
	C890.484070,164.545380 890.446899,164.580368 890.445435,164.578461 
z"/>
<path fill="#878686" opacity="1.000000" stroke="none" 
	d="
M881.708313,156.313751 
	C881.232239,156.381958 880.968750,156.198685 880.810547,155.545471 
	C880.848083,155.173019 881.112061,154.880066 881.112061,154.880066 
	C881.400330,155.042145 881.688599,155.204224 882.059448,155.608795 
	C882.142090,155.851273 881.853088,156.159775 881.708313,156.313751 
z"/>
<path fill="#797878" opacity="1.000000" stroke="none" 
	d="
M902.649048,844.679504 
	C902.649963,844.636658 902.714294,844.992249 902.714294,844.992249 
	C902.714294,844.992249 902.815247,844.686707 902.691162,844.718506 
	C902.567139,844.750305 902.648132,844.722351 902.649048,844.679504 
z"/>
<path fill="#878686" opacity="1.000000" stroke="none" 
	d="
M880.716064,155.319458 
	C880.253052,155.373947 879.988647,155.187576 879.817322,154.542236 
	C879.843811,154.177658 880.091675,153.901535 880.091675,153.901535 
	C880.379089,154.065262 880.666504,154.228989 881.032959,154.636383 
	C881.112061,154.880066 880.848083,155.173019 880.716064,155.319458 
z"/>
<path fill="#878686" opacity="1.000000" stroke="none" 
	d="
M879.719849,154.315674 
	C879.315735,154.257172 879.035706,154.060669 878.645264,153.628357 
	C878.534851,153.392548 878.816650,153.150238 878.957275,153.028778 
	C879.384460,153.073349 879.670959,153.239380 880.024536,153.653473 
	C880.091675,153.901535 879.843811,154.177658 879.719849,154.315674 
z"/>
<path fill="#878686" opacity="1.000000" stroke="none" 
	d="
M863.362488,137.496979 
	C863.154358,137.525131 862.946289,137.553268 862.738159,137.581421 
	C862.824219,137.571442 862.910339,137.561478 863.164795,137.544724 
	C863.333191,137.537949 863.362488,137.496979 863.362488,137.496979 
z"/>
<path fill="#878686" opacity="1.000000" stroke="none" 
	d="
M863.323853,137.561203 
	C863.497620,137.888504 863.680786,138.192566 864.052124,138.682007 
	C864.240234,138.867386 864.300842,138.809494 864.346069,138.783356 
	C864.024536,138.570023 863.657898,138.382858 863.326843,137.846344 
	C863.362488,137.496979 863.333191,137.537949 863.323853,137.561203 
z"/>
<path fill="#FAFBF8" opacity="1.000000" stroke="none" 
	d="
M567.587158,599.262573 
	C567.568787,587.673462 567.537048,576.516235 567.554993,565.359131 
	C567.567383,557.634155 571.830688,553.303345 579.526428,553.272461 
	C589.684143,553.231628 599.844482,553.160645 609.999512,553.339661 
	C619.103271,553.500122 622.728821,557.265259 622.771729,566.201294 
	C622.822205,576.692139 622.871155,587.183960 622.784241,597.674255 
	C622.718689,605.581299 618.473511,609.532654 610.672607,609.492493 
	C600.182373,609.438477 589.691345,609.535034 579.200684,609.551941 
	C572.645935,609.562500 568.928711,606.391846 567.587158,599.262573 
z"/>
<path fill="#030402" opacity="1.000000" stroke="none" 
	d="
M449.416351,390.404022 
	C444.733368,376.427948 448.849976,363.529053 460.101624,357.604919 
	C469.024994,352.906677 478.219818,353.185211 486.513275,358.980804 
	C495.447052,365.223816 498.067596,374.459595 496.506775,384.923584 
	C494.877716,395.844849 487.097076,403.389832 476.109283,405.093781 
	C465.121216,406.797852 455.094452,401.391449 449.416351,390.404022 
z"/>
<path fill="#030402" opacity="1.000000" stroke="none" 
	d="
M575.578369,397.410339 
	C568.330383,388.715088 566.966980,376.871918 571.950562,367.801239 
	C577.265076,358.128265 586.026917,353.577606 596.785583,354.902527 
	C606.863647,356.143646 615.180176,364.132660 617.314148,374.622559 
	C619.527039,385.501068 614.972656,396.456116 605.998413,401.841187 
	C597.083313,407.190704 585.687195,406.192047 577.666626,399.350861 
	C577.034363,398.811554 576.439331,398.228729 575.578369,397.410339 
z"/>
</svg>